<?xml version="1.0" ?><svg xmlns="http://www.w3.org/2000/svg" xmlns:xlink="http://www.w3.org/1999/xlink" version="1.1" viewBox="0 0 512 512" style="enable-background:new 0 0 512 512;" xml:space="preserve"><g id="_x32_1_Mail"><g><linearGradient id="SVGID_1_" gradientUnits="userSpaceOnUse" x1="284.9663" y1="-205.8513" x2="226.5783" y2="880.1656"><stop offset="0" style="stop-color:#EAE9FE"/><stop offset="0.4236" style="stop-color:#EEEEFE"/><stop offset="0.8967" style="stop-color:#FBFBFF"/><stop offset="1" style="stop-color:#FFFFFF"/></linearGradient><path style="fill:url(#SVGID_1_);" d="M468.836,264.275c-9.502-7.393-20.977-13.763-25.396-24.961    c-6.009-15.229,3.597-31.571,9.261-46.931c17.296-46.9-4.903-102.439-44.732-132.645    c-75.982-57.623-224.302-37.425-245.028,42.219c-8.768,33.692,6.94,72.131-9.131,103.013    c-20.278,38.966-74.073,41.594-108.719,58.921C2.169,285.358-6.419,332.1,24.365,367.686    c11.304,13.068,25.769,22.07,36.136,36.348c15.001,20.659,23.415,43.504,43.486,60.545c28.263,23.996,75.517,29.946,100.538,2.586    c14.09-15.407,18.675-38.106,34.054-52.225c20.245-18.586,52.242-16.086,78.004-6.514c25.762,9.571,49.655,25.026,76.789,29.381    c42.426,6.81,87.917-18.085,105.053-57.489C515.561,340.912,502.748,290.664,468.836,264.275z"/><g><path style="fill:#5EDB6B;" d="M420.227,229.789v188.276c0,7.003-3.126,13.254-7.988,17.536     c-4.051,3.473-9.317,5.615-15.163,5.615H114.924c-5.73,0-10.998-2.142-15.107-5.615c-4.919-4.225-8.044-10.533-8.044-17.536     V229.789H420.227z"/><path style="fill:#53C25D;" d="M271.54,336.922l140.698,98.68c-4.051,3.473-9.317,5.615-15.163,5.615H114.924     c-5.73,0-10.998-2.142-15.107-5.615l140.642-98.68L91.773,229.789L255.97,93.433l164.256,136.356L271.54,336.922z"/><path style="fill:#EDEDED;" d="M390.02,130.008v121.545l-118.481,85.347h-31.081l-118.481-85.347V80.259     c0-5.233,4.243-9.476,9.476-9.476h199.342v49.749c0,5.233,4.243,9.476,9.476,9.476H390.02z"/><path style="fill:#386E93;" d="M330.795,70.783v49.749c0,5.233,4.243,9.476,9.476,9.476h49.749L330.795,70.783z"/><circle style="fill:#F9BB40;" cx="251.041" cy="149.521" r="59.88"/><circle style="fill:#D8901D;" cx="251.041" cy="149.521" r="42.271"/><path style="fill:#332E8E;" d="M392.667,127.352l-59.215-59.215c-0.607-0.61-1.614-1.103-2.656-1.103H131.453     c-7.292,0-13.226,5.934-13.226,13.226v122.685l-28.85,23.958c-0.873,0.729-1.354,1.851-1.354,2.886v188.276     c0,14.948,12.173,26.902,26.901,26.902h282.152c14.952,0,26.901-12.031,26.901-26.902V229.788c0-1.133-0.578-2.242-1.355-2.886     l-28.851-23.95v-72.944C393.77,128.951,393.253,127.936,392.667,127.352z M380.968,126.258h-40.696     c-3.158,0-5.726-2.568-5.726-5.726V79.836L380.968,126.258z M125.727,80.26c0-3.158,2.568-5.726,5.726-5.726h195.592v45.999     c0,7.292,5.934,13.226,13.226,13.226h45.999V249.63l-115.941,83.518h-28.661L125.727,249.63V80.26z M118.227,244.228     l-19.542-14.081v-1.224l19.542-16.228V244.228z M95.523,237.112l138.466,99.769l-133.737,93.836     c-3.018-3.493-4.729-7.961-4.729-12.652V237.112z M114.924,437.467c-4.861,0-8.182-1.903-8.433-1.966l135.186-94.853h28.643     l135.257,94.861c-0.255,0.086-3.709,1.957-8.501,1.957H114.924z M411.781,430.699l-133.768-93.818l138.464-99.769v180.953     C416.477,422.707,414.771,427.177,411.781,430.699z M414.102,229.578l-20.332,14.65V212.7L414.102,229.578z"/><path style="fill:#332E8E;" d="M251.041,213.15c35.085,0,63.629-28.544,63.629-63.629s-28.544-63.63-63.629-63.63     s-63.63,28.545-63.63,63.63S215.955,213.15,251.041,213.15z M251.041,93.391c30.95,0,56.129,25.179,56.129,56.13     c0,30.95-25.179,56.129-56.129,56.129c-30.951,0-56.13-25.179-56.13-56.129C194.911,118.57,220.09,93.391,251.041,93.391z"/><path style="fill:#332E8E;" d="M251.041,195.378c25.376,0,46.021-20.645,46.021-46.021s-20.645-46.022-46.021-46.022     s-46.022,20.646-46.022,46.022S225.665,195.378,251.041,195.378z M251.041,110.836c21.24,0,38.521,17.28,38.521,38.522     c0,21.24-17.28,38.521-38.521,38.521c-21.241,0-38.522-17.28-38.522-38.521C212.519,128.116,229.799,110.836,251.041,110.836z"/><path style="fill:#332E8E;" d="M349.177,239.395c0-2.07-1.678-3.75-3.75-3.75H173.349c-2.072,0-3.75,1.68-3.75,3.75     s1.678,3.75,3.75,3.75h172.078C347.498,243.145,349.177,241.466,349.177,239.395z"/><path style="fill:#332E8E;" d="M308.928,269.388c0-2.07-1.678-3.75-3.75-3.75h-91.58c-2.072,0-3.75,1.68-3.75,3.75     s1.678,3.75,3.75,3.75h91.58C307.249,273.138,308.928,271.458,308.928,269.388z"/><path style="fill:#332E8E;" d="M251.074,166.506c-3.612,0-6.55-2.908-6.55-6.483c0-2.072-1.678-3.75-3.75-3.75     s-3.75,1.678-3.75,3.75c0,6.406,4.356,11.806,10.271,13.455v0.702c0,2.072,1.678,3.75,3.75,3.75s3.75-1.678,3.75-3.75v-0.691     c5.908-1.635,10.264-7.045,10.264-13.465c0-7.743-6.266-14.042-13.97-14.05c-0.015,0-0.029-0.004-0.043-0.004     c-0.001,0-0.002,0-0.004,0c-3.596-0.018-6.517-2.917-6.517-6.481c0-3.601,2.921-6.529,6.517-6.547c0.001,0,0.002,0,0.004,0     c0.011,0,0.022-0.003,0.033-0.003c3.574,0.002,6.481,2.939,6.481,6.55c0,2.072,1.678,3.75,3.75,3.75s3.75-1.678,3.75-3.75     c0-6.452-4.356-11.887-10.264-13.53v-1.424c0-2.072-1.678-3.75-3.75-3.75s-3.75,1.678-3.75,3.75v1.434     c-5.915,1.656-10.271,7.082-10.271,13.519c0,7.625,6.165,13.833,13.794,13.971c0.077,0.005,0.149,0.023,0.227,0.023     c0.022,0,0.041-0.006,0.063-0.006c3.56,0.019,6.451,2.946,6.451,6.547C257.558,163.598,254.649,166.506,251.074,166.506z"/></g></g></g><g id="Layer_1"/></svg>